<svg id="Layer_1" data-name="Layer 1" xmlns="http://www.w3.org/2000/svg" viewBox="0 0 388.92 335.65"><path d="M425.84,322.37l-16.32-.67-36.45-3.15a20.5,20.5,0,0,1-17.1-19.8l-2.13-112.62a108.81,108.81,0,0,0-217.58,4.05L138.4,302.8a20.47,20.47,0,0,1-16.31,20.47l-36.34,4.5-16.2,1.35a16.32,16.32,0,1,0,.67,32.63l16.32.78,48.82,2.14a20.37,20.37,0,0,0,14.06-6l17-17.66L183.29,324a10.13,10.13,0,0,1,17,6.41A9.63,9.63,0,0,1,198.7,337l-.23.33L169.11,375,158.54,387.4A16.31,16.31,0,1,0,182.05,410L194.2,399.1l45.11-41.4,2.14-2a10.21,10.21,0,0,1,6.75-2.81,9.5,9.5,0,0,1,6.86,2.59l2.25,1.91,46.58,39.71,12.48,10.46A16.31,16.31,0,1,0,339,384l-11-12-30.71-36.56-.23-.34a11.19,11.19,0,0,1-1.8-6.63,10,10,0,0,1,9.23-9.45,10.46,10.46,0,0,1,7.54,2.36l17.55,16.42,17.66,17a20.2,20.2,0,0,0,14.29,5.51l48.71-3.93,16.2-1.47a16.26,16.26,0,1,0-.56-32.51ZM223.34,217.3c-3.27,5.51-9.57,6.52-16.32,2.58q-13-7.57-26-15.31l-8.13-4.82c-9.68-5.85-9.9-14.52-.45-20.7,11.25-7.32,22.5-14.63,33.75-21.83,6.75-4.27,12.82-3.6,16.53,1.8,3.83,5.63,2,11.7-4.83,16.2-6.64,4.39-13.39,8.66-21,13.61,7.76,4.73,14.51,8.67,21.26,12.72S226.82,211.67,223.34,217.3Zm96.18-19.47c-12.93,8.1-26,15.75-39.15,23.29-5.06,2.93-11,.9-13.95-3.94a10.31,10.31,0,0,1,3.38-14.51c7.31-4.61,14.85-8.89,23.06-13.84-7.65-5-14.62-9.56-21.6-14.06-3.49-2.25-5.74-5.17-5.85-9.56-.11-8.21,8.1-14,15.19-9.68,13.5,8.1,26.66,16.65,39.6,25.54A10,10,0,0,1,319.52,197.83Z" transform="translate(-53.57 -79.35)" fill="#C5C5C5"/></svg>